<mxfile host="app.diagrams.net" modified="2022-06-28T21:25:02.461Z" agent="5.0 (Windows NT 10.0; Win64; x64) AppleWebKit/537.36 (KHTML, like Gecko) Chrome/102.0.0.0 Safari/537.36" etag="XMkwLYFu4xOfaRY4GXXV" version="20.0.3" type="github" pages="2">
  <diagram id="OMfKhsFXCJsxJWF5mS46" name="Page-1">
    <mxGraphModel dx="2500" dy="2120" grid="1" gridSize="10" guides="1" tooltips="1" connect="1" arrows="1" fold="1" page="1" pageScale="1" pageWidth="827" pageHeight="1169" math="0" shadow="0">
      <root>
        <mxCell id="0" />
        <mxCell id="1" parent="0" />
        <mxCell id="n2xOsFk3kUsymQjK4yDh-99" value="" style="rounded=0;whiteSpace=wrap;html=1;" parent="1" vertex="1">
          <mxGeometry x="190" y="-110" width="480" height="760" as="geometry" />
        </mxCell>
        <mxCell id="n2xOsFk3kUsymQjK4yDh-102" value="" style="rounded=0;whiteSpace=wrap;html=1;" parent="1" vertex="1">
          <mxGeometry x="238" y="-70" width="400" height="370" as="geometry" />
        </mxCell>
        <mxCell id="n2xOsFk3kUsymQjK4yDh-73" value="BD-3" style="shape=cylinder3;whiteSpace=wrap;html=1;boundedLbl=1;backgroundOutline=1;size=15;" parent="1" vertex="1">
          <mxGeometry x="528" y="342" width="60" height="80" as="geometry" />
        </mxCell>
        <mxCell id="n2xOsFk3kUsymQjK4yDh-72" value="BD-2" style="shape=cylinder3;whiteSpace=wrap;html=1;boundedLbl=1;backgroundOutline=1;size=15;" parent="1" vertex="1">
          <mxGeometry x="408" y="342" width="60" height="80" as="geometry" />
        </mxCell>
        <mxCell id="ft2ERqEwFSTfXbco9W6l-6" value="" style="edgeStyle=orthogonalEdgeStyle;rounded=0;orthogonalLoop=1;jettySize=auto;html=1;" edge="1" parent="1" source="n2xOsFk3kUsymQjK4yDh-71">
          <mxGeometry relative="1" as="geometry">
            <mxPoint x="270" y="525" as="targetPoint" />
          </mxGeometry>
        </mxCell>
        <mxCell id="n2xOsFk3kUsymQjK4yDh-71" value="BD-1" style="shape=cylinder3;whiteSpace=wrap;html=1;boundedLbl=1;backgroundOutline=1;size=15;" parent="1" vertex="1">
          <mxGeometry x="320" y="485" width="60" height="80" as="geometry" />
        </mxCell>
        <mxCell id="n2xOsFk3kUsymQjK4yDh-22" value="" style="rounded=0;whiteSpace=wrap;html=1;" parent="1" vertex="1">
          <mxGeometry x="228" y="-80" width="400" height="370" as="geometry" />
        </mxCell>
        <mxCell id="n2xOsFk3kUsymQjK4yDh-49" value="" style="whiteSpace=wrap;html=1;aspect=fixed;" parent="1" vertex="1">
          <mxGeometry x="516" y="168" width="96" height="96" as="geometry" />
        </mxCell>
        <mxCell id="n2xOsFk3kUsymQjK4yDh-50" value="" style="whiteSpace=wrap;html=1;aspect=fixed;" parent="1" vertex="1">
          <mxGeometry x="508" y="158" width="96" height="96" as="geometry" />
        </mxCell>
        <mxCell id="n2xOsFk3kUsymQjK4yDh-46" value="" style="whiteSpace=wrap;html=1;aspect=fixed;" parent="1" vertex="1">
          <mxGeometry x="396" y="169" width="96" height="96" as="geometry" />
        </mxCell>
        <mxCell id="n2xOsFk3kUsymQjK4yDh-47" value="" style="whiteSpace=wrap;html=1;aspect=fixed;" parent="1" vertex="1">
          <mxGeometry x="388" y="159" width="96" height="96" as="geometry" />
        </mxCell>
        <mxCell id="n2xOsFk3kUsymQjK4yDh-45" value="" style="whiteSpace=wrap;html=1;aspect=fixed;" parent="1" vertex="1">
          <mxGeometry x="266" y="170" width="96" height="96" as="geometry" />
        </mxCell>
        <mxCell id="n2xOsFk3kUsymQjK4yDh-44" value="" style="whiteSpace=wrap;html=1;aspect=fixed;direction=south;" parent="1" vertex="1">
          <mxGeometry x="258" y="160" width="96" height="96" as="geometry" />
        </mxCell>
        <mxCell id="n2xOsFk3kUsymQjK4yDh-76" style="edgeStyle=none;rounded=0;orthogonalLoop=1;jettySize=auto;html=1;exitX=0.5;exitY=1;exitDx=0;exitDy=0;" parent="1" source="n2xOsFk3kUsymQjK4yDh-2" target="n2xOsFk3kUsymQjK4yDh-75" edge="1">
          <mxGeometry relative="1" as="geometry" />
        </mxCell>
        <mxCell id="n2xOsFk3kUsymQjK4yDh-2" value="" style="whiteSpace=wrap;html=1;aspect=fixed;" parent="1" vertex="1">
          <mxGeometry x="250" y="152" width="96" height="96" as="geometry" />
        </mxCell>
        <mxCell id="n2xOsFk3kUsymQjK4yDh-3" value="container" style="text;html=1;strokeColor=none;fillColor=none;align=center;verticalAlign=middle;whiteSpace=wrap;rounded=0;" parent="1" vertex="1">
          <mxGeometry x="268" y="130" width="60" height="30" as="geometry" />
        </mxCell>
        <mxCell id="n2xOsFk3kUsymQjK4yDh-1" value="Core &lt;br&gt;Domain&lt;br&gt;1&lt;br&gt;API" style="whiteSpace=wrap;html=1;aspect=fixed;" parent="1" vertex="1">
          <mxGeometry x="258" y="160" width="80" height="80" as="geometry" />
        </mxCell>
        <mxCell id="n2xOsFk3kUsymQjK4yDh-4" value="BD-1" style="shape=cylinder3;whiteSpace=wrap;html=1;boundedLbl=1;backgroundOutline=1;size=15;" parent="1" vertex="1">
          <mxGeometry x="220" y="485" width="60" height="80" as="geometry" />
        </mxCell>
        <mxCell id="n2xOsFk3kUsymQjK4yDh-6" style="edgeStyle=orthogonalEdgeStyle;rounded=0;orthogonalLoop=1;jettySize=auto;html=1;exitX=0.5;exitY=1;exitDx=0;exitDy=0;" parent="1" source="n2xOsFk3kUsymQjK4yDh-7" target="n2xOsFk3kUsymQjK4yDh-10" edge="1">
          <mxGeometry relative="1" as="geometry" />
        </mxCell>
        <mxCell id="n2xOsFk3kUsymQjK4yDh-7" value="" style="whiteSpace=wrap;html=1;aspect=fixed;" parent="1" vertex="1">
          <mxGeometry x="380" y="152" width="96" height="96" as="geometry" />
        </mxCell>
        <mxCell id="n2xOsFk3kUsymQjK4yDh-8" value="Core &lt;br&gt;Domain&lt;br&gt;2&lt;br&gt;API" style="whiteSpace=wrap;html=1;aspect=fixed;" parent="1" vertex="1">
          <mxGeometry x="388" y="160" width="80" height="80" as="geometry" />
        </mxCell>
        <mxCell id="n2xOsFk3kUsymQjK4yDh-29" style="edgeStyle=none;rounded=0;orthogonalLoop=1;jettySize=auto;html=1;exitX=0.5;exitY=1;exitDx=0;exitDy=0;entryX=0.438;entryY=1.003;entryDx=0;entryDy=0;entryPerimeter=0;" parent="1" source="n2xOsFk3kUsymQjK4yDh-9" target="n2xOsFk3kUsymQjK4yDh-25" edge="1">
          <mxGeometry relative="1" as="geometry" />
        </mxCell>
        <mxCell id="n2xOsFk3kUsymQjK4yDh-67" style="edgeStyle=none;rounded=0;orthogonalLoop=1;jettySize=auto;html=1;exitX=1;exitY=0;exitDx=0;exitDy=0;entryX=1;entryY=1;entryDx=0;entryDy=0;" parent="1" source="n2xOsFk3kUsymQjK4yDh-9" target="n2xOsFk3kUsymQjK4yDh-9" edge="1">
          <mxGeometry relative="1" as="geometry" />
        </mxCell>
        <mxCell id="n2xOsFk3kUsymQjK4yDh-9" value="container" style="text;html=1;strokeColor=none;fillColor=none;align=center;verticalAlign=middle;whiteSpace=wrap;rounded=0;" parent="1" vertex="1">
          <mxGeometry x="398" y="130" width="60" height="30" as="geometry" />
        </mxCell>
        <mxCell id="n2xOsFk3kUsymQjK4yDh-10" value="BD-2" style="shape=cylinder3;whiteSpace=wrap;html=1;boundedLbl=1;backgroundOutline=1;size=15;" parent="1" vertex="1">
          <mxGeometry x="398" y="332" width="60" height="80" as="geometry" />
        </mxCell>
        <mxCell id="n2xOsFk3kUsymQjK4yDh-11" style="edgeStyle=orthogonalEdgeStyle;rounded=0;orthogonalLoop=1;jettySize=auto;html=1;exitX=0.5;exitY=1;exitDx=0;exitDy=0;" parent="1" source="n2xOsFk3kUsymQjK4yDh-12" target="n2xOsFk3kUsymQjK4yDh-15" edge="1">
          <mxGeometry relative="1" as="geometry" />
        </mxCell>
        <mxCell id="n2xOsFk3kUsymQjK4yDh-12" value="" style="whiteSpace=wrap;html=1;aspect=fixed;" parent="1" vertex="1">
          <mxGeometry x="500" y="152" width="96" height="96" as="geometry" />
        </mxCell>
        <mxCell id="n2xOsFk3kUsymQjK4yDh-13" value="Core &lt;br&gt;Domain&lt;br&gt;3&lt;br&gt;API" style="whiteSpace=wrap;html=1;aspect=fixed;" parent="1" vertex="1">
          <mxGeometry x="508" y="160" width="80" height="80" as="geometry" />
        </mxCell>
        <mxCell id="n2xOsFk3kUsymQjK4yDh-30" style="edgeStyle=none;rounded=0;orthogonalLoop=1;jettySize=auto;html=1;exitX=0.5;exitY=1;exitDx=0;exitDy=0;entryX=0.75;entryY=1;entryDx=0;entryDy=0;" parent="1" source="n2xOsFk3kUsymQjK4yDh-14" target="n2xOsFk3kUsymQjK4yDh-25" edge="1">
          <mxGeometry relative="1" as="geometry" />
        </mxCell>
        <mxCell id="n2xOsFk3kUsymQjK4yDh-14" value="container" style="text;html=1;strokeColor=none;fillColor=none;align=center;verticalAlign=middle;whiteSpace=wrap;rounded=0;" parent="1" vertex="1">
          <mxGeometry x="518" y="130" width="60" height="30" as="geometry" />
        </mxCell>
        <mxCell id="n2xOsFk3kUsymQjK4yDh-15" value="BD-3" style="shape=cylinder3;whiteSpace=wrap;html=1;boundedLbl=1;backgroundOutline=1;size=15;" parent="1" vertex="1">
          <mxGeometry x="518" y="332" width="60" height="80" as="geometry" />
        </mxCell>
        <mxCell id="n2xOsFk3kUsymQjK4yDh-16" style="edgeStyle=orthogonalEdgeStyle;rounded=0;orthogonalLoop=1;jettySize=auto;html=1;exitX=0.5;exitY=1;exitDx=0;exitDy=0;" parent="1" target="n2xOsFk3kUsymQjK4yDh-20" edge="1">
          <mxGeometry relative="1" as="geometry">
            <mxPoint x="1170" y="276" as="sourcePoint" />
          </mxGeometry>
        </mxCell>
        <mxCell id="n2xOsFk3kUsymQjK4yDh-18" value="Monolito / APIs" style="whiteSpace=wrap;html=1;aspect=fixed;" parent="1" vertex="1">
          <mxGeometry x="1130" y="188" width="80" height="80" as="geometry" />
        </mxCell>
        <mxCell id="n2xOsFk3kUsymQjK4yDh-20" value="BD&lt;br&gt;Monolito" style="shape=cylinder3;whiteSpace=wrap;html=1;boundedLbl=1;backgroundOutline=1;size=15;" parent="1" vertex="1">
          <mxGeometry x="1140" y="360" width="60" height="80" as="geometry" />
        </mxCell>
        <mxCell id="n2xOsFk3kUsymQjK4yDh-23" value="" style="shape=image;html=1;verticalAlign=top;verticalLabelPosition=bottom;labelBackgroundColor=#ffffff;imageAspect=0;aspect=fixed;image=https://cdn0.iconfinder.com/data/icons/social-media-2104/24/social_media_social_media_logo_docker-128.png" parent="1" vertex="1">
          <mxGeometry x="578" y="-70" width="40" height="40" as="geometry" />
        </mxCell>
        <mxCell id="n2xOsFk3kUsymQjK4yDh-25" value="" style="whiteSpace=wrap;html=1;aspect=fixed;" parent="1" vertex="1">
          <mxGeometry x="388" y="-48" width="96" height="96" as="geometry" />
        </mxCell>
        <mxCell id="n2xOsFk3kUsymQjK4yDh-26" value="Cache&lt;br&gt;MenCache&lt;br&gt;Redis" style="shape=cylinder3;whiteSpace=wrap;html=1;boundedLbl=1;backgroundOutline=1;size=15;" parent="1" vertex="1">
          <mxGeometry x="406" y="-40" width="60" height="80" as="geometry" />
        </mxCell>
        <mxCell id="n2xOsFk3kUsymQjK4yDh-27" value="container" style="text;html=1;strokeColor=none;fillColor=none;align=center;verticalAlign=middle;whiteSpace=wrap;rounded=0;" parent="1" vertex="1">
          <mxGeometry x="406" y="-70" width="60" height="30" as="geometry" />
        </mxCell>
        <mxCell id="n2xOsFk3kUsymQjK4yDh-31" value="VM&lt;br&gt;ou&lt;br&gt;&lt;div style=&quot;&quot;&gt;&lt;span style=&quot;background-color: initial;&quot;&gt;Kubernets Cluster&lt;/span&gt;&lt;/div&gt;" style="text;html=1;strokeColor=none;fillColor=none;align=left;verticalAlign=middle;whiteSpace=wrap;rounded=0;" parent="1" vertex="1">
          <mxGeometry x="238" y="-80" width="120" height="70" as="geometry" />
        </mxCell>
        <mxCell id="n2xOsFk3kUsymQjK4yDh-33" value="client system" style="shape=umlActor;verticalLabelPosition=bottom;verticalAlign=top;html=1;outlineConnect=0;" parent="1" vertex="1">
          <mxGeometry x="-650" y="77" width="30" height="60" as="geometry" />
        </mxCell>
        <mxCell id="n2xOsFk3kUsymQjK4yDh-58" style="edgeStyle=none;rounded=0;orthogonalLoop=1;jettySize=auto;html=1;entryX=0;entryY=0.5;entryDx=0;entryDy=0;" parent="1" source="n2xOsFk3kUsymQjK4yDh-37" target="n2xOsFk3kUsymQjK4yDh-39" edge="1">
          <mxGeometry relative="1" as="geometry" />
        </mxCell>
        <mxCell id="n2xOsFk3kUsymQjK4yDh-62" style="edgeStyle=none;rounded=0;orthogonalLoop=1;jettySize=auto;html=1;exitX=1;exitY=0.75;exitDx=0;exitDy=0;entryX=0;entryY=0.5;entryDx=0;entryDy=0;" parent="1" source="n2xOsFk3kUsymQjK4yDh-37" target="n2xOsFk3kUsymQjK4yDh-56" edge="1">
          <mxGeometry relative="1" as="geometry" />
        </mxCell>
        <mxCell id="n2xOsFk3kUsymQjK4yDh-37" value="" style="whiteSpace=wrap;html=1;aspect=fixed;" parent="1" vertex="1">
          <mxGeometry x="-330" y="62" width="96" height="96" as="geometry" />
        </mxCell>
        <mxCell id="n2xOsFk3kUsymQjK4yDh-38" value="LB&lt;br&gt;Camada 7 - Application" style="whiteSpace=wrap;html=1;aspect=fixed;" parent="1" vertex="1">
          <mxGeometry x="-322" y="70" width="80" height="80" as="geometry" />
        </mxCell>
        <mxCell id="n2xOsFk3kUsymQjK4yDh-39" value="" style="whiteSpace=wrap;html=1;aspect=fixed;" parent="1" vertex="1">
          <mxGeometry x="-176" y="-11" width="96" height="96" as="geometry" />
        </mxCell>
        <mxCell id="n2xOsFk3kUsymQjK4yDh-63" style="edgeStyle=none;rounded=0;orthogonalLoop=1;jettySize=auto;html=1;entryX=0;entryY=0.25;entryDx=0;entryDy=0;" parent="1" source="n2xOsFk3kUsymQjK4yDh-40" target="n2xOsFk3kUsymQjK4yDh-98" edge="1">
          <mxGeometry relative="1" as="geometry" />
        </mxCell>
        <mxCell id="n2xOsFk3kUsymQjK4yDh-40" value="API Gatway" style="whiteSpace=wrap;html=1;aspect=fixed;" parent="1" vertex="1">
          <mxGeometry x="-168" y="-3" width="80" height="80" as="geometry" />
        </mxCell>
        <mxCell id="n2xOsFk3kUsymQjK4yDh-41" value="" style="whiteSpace=wrap;html=1;aspect=fixed;" parent="1" vertex="1">
          <mxGeometry x="16" y="-67" width="96" height="96" as="geometry" />
        </mxCell>
        <mxCell id="n2xOsFk3kUsymQjK4yDh-42" value="LB&lt;br&gt;Camada 4 - Transport" style="whiteSpace=wrap;html=1;aspect=fixed;" parent="1" vertex="1">
          <mxGeometry x="24" y="-59" width="80" height="80" as="geometry" />
        </mxCell>
        <mxCell id="n2xOsFk3kUsymQjK4yDh-60" style="edgeStyle=none;rounded=0;orthogonalLoop=1;jettySize=auto;html=1;" parent="1" source="n2xOsFk3kUsymQjK4yDh-52" target="n2xOsFk3kUsymQjK4yDh-37" edge="1">
          <mxGeometry relative="1" as="geometry" />
        </mxCell>
        <mxCell id="n2xOsFk3kUsymQjK4yDh-52" value="www.api.com/1" style="text;html=1;strokeColor=none;fillColor=none;align=center;verticalAlign=middle;whiteSpace=wrap;rounded=0;" parent="1" vertex="1">
          <mxGeometry x="-630" y="75" width="120" height="70" as="geometry" />
        </mxCell>
        <mxCell id="n2xOsFk3kUsymQjK4yDh-81" style="edgeStyle=none;rounded=0;orthogonalLoop=1;jettySize=auto;html=1;exitX=0.75;exitY=1;exitDx=0;exitDy=0;entryX=1;entryY=0;entryDx=0;entryDy=0;" parent="1" source="n2xOsFk3kUsymQjK4yDh-53" target="n2xOsFk3kUsymQjK4yDh-1" edge="1">
          <mxGeometry relative="1" as="geometry" />
        </mxCell>
        <mxCell id="n2xOsFk3kUsymQjK4yDh-53" value="www.micro.com/1" style="text;html=1;strokeColor=none;fillColor=none;align=center;verticalAlign=middle;whiteSpace=wrap;rounded=0;" parent="1" vertex="1">
          <mxGeometry x="268" y="102" width="94" height="28" as="geometry" />
        </mxCell>
        <mxCell id="n2xOsFk3kUsymQjK4yDh-64" style="edgeStyle=none;rounded=0;orthogonalLoop=1;jettySize=auto;html=1;exitX=1;exitY=0.5;exitDx=0;exitDy=0;entryX=0;entryY=0.75;entryDx=0;entryDy=0;" parent="1" source="n2xOsFk3kUsymQjK4yDh-56" target="n2xOsFk3kUsymQjK4yDh-98" edge="1">
          <mxGeometry relative="1" as="geometry" />
        </mxCell>
        <mxCell id="n2xOsFk3kUsymQjK4yDh-56" value="" style="whiteSpace=wrap;html=1;aspect=fixed;" parent="1" vertex="1">
          <mxGeometry x="-176" y="125" width="96" height="96" as="geometry" />
        </mxCell>
        <mxCell id="n2xOsFk3kUsymQjK4yDh-57" value="API Gatway" style="whiteSpace=wrap;html=1;aspect=fixed;" parent="1" vertex="1">
          <mxGeometry x="-168" y="133" width="80" height="80" as="geometry" />
        </mxCell>
        <mxCell id="n2xOsFk3kUsymQjK4yDh-65" value="www.micro.com/2" style="text;html=1;strokeColor=none;fillColor=none;align=center;verticalAlign=middle;whiteSpace=wrap;rounded=0;" parent="1" vertex="1">
          <mxGeometry x="368" y="97" width="120" height="30" as="geometry" />
        </mxCell>
        <mxCell id="n2xOsFk3kUsymQjK4yDh-68" style="edgeStyle=none;rounded=0;orthogonalLoop=1;jettySize=auto;html=1;exitX=0.75;exitY=1;exitDx=0;exitDy=0;entryX=1;entryY=0.75;entryDx=0;entryDy=0;" parent="1" source="n2xOsFk3kUsymQjK4yDh-66" target="n2xOsFk3kUsymQjK4yDh-14" edge="1">
          <mxGeometry relative="1" as="geometry" />
        </mxCell>
        <mxCell id="n2xOsFk3kUsymQjK4yDh-66" value="www.micro.com/3" style="text;html=1;strokeColor=none;fillColor=none;align=center;verticalAlign=middle;whiteSpace=wrap;rounded=0;" parent="1" vertex="1">
          <mxGeometry x="488" y="95" width="120" height="30" as="geometry" />
        </mxCell>
        <mxCell id="n2xOsFk3kUsymQjK4yDh-77" style="edgeStyle=none;rounded=0;orthogonalLoop=1;jettySize=auto;html=1;exitX=0.25;exitY=1;exitDx=0;exitDy=0;entryX=0.5;entryY=0;entryDx=0;entryDy=0;entryPerimeter=0;" parent="1" source="n2xOsFk3kUsymQjK4yDh-74" target="n2xOsFk3kUsymQjK4yDh-4" edge="1">
          <mxGeometry relative="1" as="geometry" />
        </mxCell>
        <mxCell id="n2xOsFk3kUsymQjK4yDh-78" style="edgeStyle=none;rounded=0;orthogonalLoop=1;jettySize=auto;html=1;exitX=0.75;exitY=1;exitDx=0;exitDy=0;" parent="1" source="n2xOsFk3kUsymQjK4yDh-74" target="n2xOsFk3kUsymQjK4yDh-71" edge="1">
          <mxGeometry relative="1" as="geometry" />
        </mxCell>
        <mxCell id="n2xOsFk3kUsymQjK4yDh-74" value="" style="whiteSpace=wrap;html=1;aspect=fixed;" parent="1" vertex="1">
          <mxGeometry x="250" y="332" width="96" height="96" as="geometry" />
        </mxCell>
        <mxCell id="n2xOsFk3kUsymQjK4yDh-75" value="LB&lt;br&gt;Camada 4 - Transport" style="whiteSpace=wrap;html=1;aspect=fixed;" parent="1" vertex="1">
          <mxGeometry x="258" y="340" width="80" height="80" as="geometry" />
        </mxCell>
        <mxCell id="n2xOsFk3kUsymQjK4yDh-79" value="Política de expurgo" style="text;html=1;strokeColor=none;fillColor=none;align=center;verticalAlign=middle;whiteSpace=wrap;rounded=0;" parent="1" vertex="1">
          <mxGeometry x="468" y="440" width="60" height="30" as="geometry" />
        </mxCell>
        <mxCell id="n2xOsFk3kUsymQjK4yDh-88" style="edgeStyle=none;rounded=0;orthogonalLoop=1;jettySize=auto;html=1;entryX=1;entryY=0.5;entryDx=0;entryDy=0;" parent="1" source="n2xOsFk3kUsymQjK4yDh-86" target="n2xOsFk3kUsymQjK4yDh-22" edge="1">
          <mxGeometry relative="1" as="geometry" />
        </mxCell>
        <mxCell id="n2xOsFk3kUsymQjK4yDh-86" value="Monitoramento" style="ellipse;shape=cloud;whiteSpace=wrap;html=1;" parent="1" vertex="1">
          <mxGeometry x="680" y="-60" width="120" height="80" as="geometry" />
        </mxCell>
        <mxCell id="n2xOsFk3kUsymQjK4yDh-87" value="Observabilidade&lt;br&gt;" style="ellipse;shape=cloud;whiteSpace=wrap;html=1;" parent="1" vertex="1">
          <mxGeometry x="770" y="-67" width="120" height="80" as="geometry" />
        </mxCell>
        <mxCell id="n2xOsFk3kUsymQjK4yDh-90" style="edgeStyle=none;rounded=0;orthogonalLoop=1;jettySize=auto;html=1;entryX=1;entryY=0.726;entryDx=0;entryDy=0;entryPerimeter=0;" parent="1" source="n2xOsFk3kUsymQjK4yDh-89" target="n2xOsFk3kUsymQjK4yDh-22" edge="1">
          <mxGeometry relative="1" as="geometry" />
        </mxCell>
        <mxCell id="n2xOsFk3kUsymQjK4yDh-89" value="Key Vault" style="ellipse;shape=cloud;whiteSpace=wrap;html=1;" parent="1" vertex="1">
          <mxGeometry x="737" y="149" width="120" height="80" as="geometry" />
        </mxCell>
        <mxCell id="n2xOsFk3kUsymQjK4yDh-91" value="Logs / Tracing&lt;br&gt;Datadog&lt;br&gt;New Relic" style="ellipse;shape=cloud;whiteSpace=wrap;html=1;" parent="1" vertex="1">
          <mxGeometry x="720" y="-20" width="120" height="90" as="geometry" />
        </mxCell>
        <mxCell id="n2xOsFk3kUsymQjK4yDh-92" value="Application Performance Monitoring" style="text;html=1;strokeColor=none;fillColor=none;align=center;verticalAlign=middle;whiteSpace=wrap;rounded=0;" parent="1" vertex="1">
          <mxGeometry x="750.25" y="-110" width="59.5" height="30" as="geometry" />
        </mxCell>
        <mxCell id="n2xOsFk3kUsymQjK4yDh-93" value="" style="whiteSpace=wrap;html=1;aspect=fixed;" parent="1" vertex="1">
          <mxGeometry x="-470" y="62" width="96" height="96" as="geometry" />
        </mxCell>
        <mxCell id="n2xOsFk3kUsymQjK4yDh-94" value="WAF&lt;br&gt;Web Aplication Firewall" style="whiteSpace=wrap;html=1;aspect=fixed;" parent="1" vertex="1">
          <mxGeometry x="-462" y="70" width="80" height="80" as="geometry" />
        </mxCell>
        <mxCell id="n2xOsFk3kUsymQjK4yDh-97" style="edgeStyle=none;rounded=0;orthogonalLoop=1;jettySize=auto;html=1;" parent="1" source="n2xOsFk3kUsymQjK4yDh-96" target="n2xOsFk3kUsymQjK4yDh-94" edge="1">
          <mxGeometry relative="1" as="geometry" />
        </mxCell>
        <mxCell id="n2xOsFk3kUsymQjK4yDh-96" value="DDos, SQL Injection" style="text;html=1;strokeColor=none;fillColor=none;align=center;verticalAlign=middle;whiteSpace=wrap;rounded=0;" parent="1" vertex="1">
          <mxGeometry x="-467" width="90" height="30" as="geometry" />
        </mxCell>
        <mxCell id="n2xOsFk3kUsymQjK4yDh-101" style="edgeStyle=none;rounded=0;orthogonalLoop=1;jettySize=auto;html=1;entryX=0;entryY=0.289;entryDx=0;entryDy=0;entryPerimeter=0;" parent="1" source="n2xOsFk3kUsymQjK4yDh-98" target="n2xOsFk3kUsymQjK4yDh-99" edge="1">
          <mxGeometry relative="1" as="geometry" />
        </mxCell>
        <mxCell id="n2xOsFk3kUsymQjK4yDh-98" value="Gateway" style="whiteSpace=wrap;html=1;aspect=fixed;" parent="1" vertex="1">
          <mxGeometry x="11" y="56.5" width="101" height="101" as="geometry" />
        </mxCell>
        <mxCell id="n2xOsFk3kUsymQjK4yDh-100" value="Subnet - rede privada / NAT&amp;nbsp;" style="text;html=1;strokeColor=none;fillColor=none;align=center;verticalAlign=middle;whiteSpace=wrap;rounded=0;" parent="1" vertex="1">
          <mxGeometry x="196" y="613" width="158" height="30" as="geometry" />
        </mxCell>
        <mxCell id="ft2ERqEwFSTfXbco9W6l-2" style="edgeStyle=orthogonalEdgeStyle;rounded=0;orthogonalLoop=1;jettySize=auto;html=1;exitX=1;exitY=0;exitDx=0;exitDy=27.5;exitPerimeter=0;entryX=1;entryY=0;entryDx=0;entryDy=15;entryPerimeter=0;" edge="1" parent="1" source="n2xOsFk3kUsymQjK4yDh-10" target="n2xOsFk3kUsymQjK4yDh-10">
          <mxGeometry relative="1" as="geometry" />
        </mxCell>
      </root>
    </mxGraphModel>
  </diagram>
  <diagram id="Pt_7ezGPs65jvhKQ3ltm" name="Page-2">
    <mxGraphModel dx="2249" dy="1977" grid="1" gridSize="10" guides="1" tooltips="1" connect="1" arrows="1" fold="1" page="1" pageScale="1" pageWidth="827" pageHeight="1169" math="0" shadow="0">
      <root>
        <mxCell id="0" />
        <mxCell id="1" parent="0" />
        <mxCell id="Mz-QrK3eCU41XmFkqmDs-1" value="" style="rounded=0;whiteSpace=wrap;html=1;" vertex="1" parent="1">
          <mxGeometry x="160" y="-10" width="480" height="760" as="geometry" />
        </mxCell>
        <mxCell id="Mz-QrK3eCU41XmFkqmDs-2" value="" style="rounded=0;whiteSpace=wrap;html=1;" vertex="1" parent="1">
          <mxGeometry x="208" y="30" width="400" height="370" as="geometry" />
        </mxCell>
        <mxCell id="Mz-QrK3eCU41XmFkqmDs-3" value="BD-3" style="shape=cylinder3;whiteSpace=wrap;html=1;boundedLbl=1;backgroundOutline=1;size=15;" vertex="1" parent="1">
          <mxGeometry x="498" y="442" width="60" height="80" as="geometry" />
        </mxCell>
        <mxCell id="Mz-QrK3eCU41XmFkqmDs-4" value="BD-2" style="shape=cylinder3;whiteSpace=wrap;html=1;boundedLbl=1;backgroundOutline=1;size=15;" vertex="1" parent="1">
          <mxGeometry x="378" y="442" width="60" height="80" as="geometry" />
        </mxCell>
        <mxCell id="Mz-QrK3eCU41XmFkqmDs-5" value="BD-1" style="shape=cylinder3;whiteSpace=wrap;html=1;boundedLbl=1;backgroundOutline=1;size=15;" vertex="1" parent="1">
          <mxGeometry x="290" y="585" width="60" height="80" as="geometry" />
        </mxCell>
        <mxCell id="Mz-QrK3eCU41XmFkqmDs-6" value="" style="rounded=0;whiteSpace=wrap;html=1;" vertex="1" parent="1">
          <mxGeometry x="198" y="20" width="400" height="370" as="geometry" />
        </mxCell>
        <mxCell id="Mz-QrK3eCU41XmFkqmDs-7" value="" style="whiteSpace=wrap;html=1;aspect=fixed;" vertex="1" parent="1">
          <mxGeometry x="486" y="268" width="96" height="96" as="geometry" />
        </mxCell>
        <mxCell id="Mz-QrK3eCU41XmFkqmDs-8" value="" style="whiteSpace=wrap;html=1;aspect=fixed;" vertex="1" parent="1">
          <mxGeometry x="478" y="258" width="96" height="96" as="geometry" />
        </mxCell>
        <mxCell id="Mz-QrK3eCU41XmFkqmDs-9" value="" style="whiteSpace=wrap;html=1;aspect=fixed;" vertex="1" parent="1">
          <mxGeometry x="366" y="269" width="96" height="96" as="geometry" />
        </mxCell>
        <mxCell id="Mz-QrK3eCU41XmFkqmDs-10" value="" style="whiteSpace=wrap;html=1;aspect=fixed;" vertex="1" parent="1">
          <mxGeometry x="358" y="259" width="96" height="96" as="geometry" />
        </mxCell>
        <mxCell id="Mz-QrK3eCU41XmFkqmDs-11" value="" style="whiteSpace=wrap;html=1;aspect=fixed;" vertex="1" parent="1">
          <mxGeometry x="236" y="270" width="96" height="96" as="geometry" />
        </mxCell>
        <mxCell id="Mz-QrK3eCU41XmFkqmDs-12" value="" style="whiteSpace=wrap;html=1;aspect=fixed;" vertex="1" parent="1">
          <mxGeometry x="228" y="260" width="96" height="96" as="geometry" />
        </mxCell>
        <mxCell id="Mz-QrK3eCU41XmFkqmDs-13" style="edgeStyle=none;rounded=0;orthogonalLoop=1;jettySize=auto;html=1;exitX=0.5;exitY=1;exitDx=0;exitDy=0;" edge="1" parent="1" source="Mz-QrK3eCU41XmFkqmDs-14" target="Mz-QrK3eCU41XmFkqmDs-64">
          <mxGeometry relative="1" as="geometry" />
        </mxCell>
        <mxCell id="Mz-QrK3eCU41XmFkqmDs-14" value="" style="whiteSpace=wrap;html=1;aspect=fixed;" vertex="1" parent="1">
          <mxGeometry x="220" y="252" width="96" height="96" as="geometry" />
        </mxCell>
        <mxCell id="Mz-QrK3eCU41XmFkqmDs-15" value="container" style="text;html=1;strokeColor=none;fillColor=none;align=center;verticalAlign=middle;whiteSpace=wrap;rounded=0;" vertex="1" parent="1">
          <mxGeometry x="238" y="230" width="60" height="30" as="geometry" />
        </mxCell>
        <mxCell id="Mz-QrK3eCU41XmFkqmDs-16" value="Core &lt;br&gt;Domain&lt;br&gt;1&lt;br&gt;API" style="whiteSpace=wrap;html=1;aspect=fixed;" vertex="1" parent="1">
          <mxGeometry x="228" y="260" width="80" height="80" as="geometry" />
        </mxCell>
        <mxCell id="NYM8n35rPgB6xgfV09ns-1" style="edgeStyle=orthogonalEdgeStyle;rounded=0;orthogonalLoop=1;jettySize=auto;html=1;exitX=1;exitY=0.5;exitDx=0;exitDy=0;exitPerimeter=0;entryX=0;entryY=0.5;entryDx=0;entryDy=0;entryPerimeter=0;" edge="1" parent="1" source="Mz-QrK3eCU41XmFkqmDs-17" target="Mz-QrK3eCU41XmFkqmDs-5">
          <mxGeometry relative="1" as="geometry" />
        </mxCell>
        <mxCell id="Mz-QrK3eCU41XmFkqmDs-17" value="BD-1" style="shape=cylinder3;whiteSpace=wrap;html=1;boundedLbl=1;backgroundOutline=1;size=15;" vertex="1" parent="1">
          <mxGeometry x="198" y="585" width="60" height="80" as="geometry" />
        </mxCell>
        <mxCell id="Mz-QrK3eCU41XmFkqmDs-18" style="edgeStyle=orthogonalEdgeStyle;rounded=0;orthogonalLoop=1;jettySize=auto;html=1;exitX=0.5;exitY=1;exitDx=0;exitDy=0;" edge="1" parent="1" source="Mz-QrK3eCU41XmFkqmDs-19" target="Mz-QrK3eCU41XmFkqmDs-24">
          <mxGeometry relative="1" as="geometry" />
        </mxCell>
        <mxCell id="Mz-QrK3eCU41XmFkqmDs-19" value="" style="whiteSpace=wrap;html=1;aspect=fixed;" vertex="1" parent="1">
          <mxGeometry x="350" y="252" width="96" height="96" as="geometry" />
        </mxCell>
        <mxCell id="Mz-QrK3eCU41XmFkqmDs-20" value="Core &lt;br&gt;Domain&lt;br&gt;2&lt;br&gt;API" style="whiteSpace=wrap;html=1;aspect=fixed;" vertex="1" parent="1">
          <mxGeometry x="358" y="260" width="80" height="80" as="geometry" />
        </mxCell>
        <mxCell id="Mz-QrK3eCU41XmFkqmDs-21" style="edgeStyle=none;rounded=0;orthogonalLoop=1;jettySize=auto;html=1;exitX=0.5;exitY=1;exitDx=0;exitDy=0;entryX=0.438;entryY=1.003;entryDx=0;entryDy=0;entryPerimeter=0;" edge="1" parent="1" source="Mz-QrK3eCU41XmFkqmDs-23" target="Mz-QrK3eCU41XmFkqmDs-35">
          <mxGeometry relative="1" as="geometry" />
        </mxCell>
        <mxCell id="Mz-QrK3eCU41XmFkqmDs-22" style="edgeStyle=none;rounded=0;orthogonalLoop=1;jettySize=auto;html=1;exitX=1;exitY=0;exitDx=0;exitDy=0;entryX=1;entryY=1;entryDx=0;entryDy=0;" edge="1" parent="1" source="Mz-QrK3eCU41XmFkqmDs-23" target="Mz-QrK3eCU41XmFkqmDs-23">
          <mxGeometry relative="1" as="geometry" />
        </mxCell>
        <mxCell id="Mz-QrK3eCU41XmFkqmDs-23" value="container" style="text;html=1;strokeColor=none;fillColor=none;align=center;verticalAlign=middle;whiteSpace=wrap;rounded=0;" vertex="1" parent="1">
          <mxGeometry x="368" y="230" width="60" height="30" as="geometry" />
        </mxCell>
        <mxCell id="Mz-QrK3eCU41XmFkqmDs-24" value="BD-2" style="shape=cylinder3;whiteSpace=wrap;html=1;boundedLbl=1;backgroundOutline=1;size=15;" vertex="1" parent="1">
          <mxGeometry x="368" y="432" width="60" height="80" as="geometry" />
        </mxCell>
        <mxCell id="Mz-QrK3eCU41XmFkqmDs-25" style="edgeStyle=orthogonalEdgeStyle;rounded=0;orthogonalLoop=1;jettySize=auto;html=1;exitX=0.5;exitY=1;exitDx=0;exitDy=0;" edge="1" parent="1" source="Mz-QrK3eCU41XmFkqmDs-26" target="Mz-QrK3eCU41XmFkqmDs-30">
          <mxGeometry relative="1" as="geometry" />
        </mxCell>
        <mxCell id="Mz-QrK3eCU41XmFkqmDs-26" value="" style="whiteSpace=wrap;html=1;aspect=fixed;" vertex="1" parent="1">
          <mxGeometry x="470" y="252" width="96" height="96" as="geometry" />
        </mxCell>
        <mxCell id="Mz-QrK3eCU41XmFkqmDs-27" value="Core &lt;br&gt;Domain&lt;br&gt;3&lt;br&gt;API" style="whiteSpace=wrap;html=1;aspect=fixed;" vertex="1" parent="1">
          <mxGeometry x="478" y="260" width="80" height="80" as="geometry" />
        </mxCell>
        <mxCell id="Mz-QrK3eCU41XmFkqmDs-28" style="edgeStyle=none;rounded=0;orthogonalLoop=1;jettySize=auto;html=1;exitX=0.5;exitY=1;exitDx=0;exitDy=0;entryX=0.75;entryY=1;entryDx=0;entryDy=0;" edge="1" parent="1" source="Mz-QrK3eCU41XmFkqmDs-29" target="Mz-QrK3eCU41XmFkqmDs-35">
          <mxGeometry relative="1" as="geometry" />
        </mxCell>
        <mxCell id="Mz-QrK3eCU41XmFkqmDs-29" value="container" style="text;html=1;strokeColor=none;fillColor=none;align=center;verticalAlign=middle;whiteSpace=wrap;rounded=0;" vertex="1" parent="1">
          <mxGeometry x="488" y="230" width="60" height="30" as="geometry" />
        </mxCell>
        <mxCell id="Mz-QrK3eCU41XmFkqmDs-30" value="BD-3" style="shape=cylinder3;whiteSpace=wrap;html=1;boundedLbl=1;backgroundOutline=1;size=15;" vertex="1" parent="1">
          <mxGeometry x="488" y="432" width="60" height="80" as="geometry" />
        </mxCell>
        <mxCell id="Mz-QrK3eCU41XmFkqmDs-31" style="edgeStyle=orthogonalEdgeStyle;rounded=0;orthogonalLoop=1;jettySize=auto;html=1;exitX=0.5;exitY=1;exitDx=0;exitDy=0;" edge="1" parent="1" target="Mz-QrK3eCU41XmFkqmDs-33">
          <mxGeometry relative="1" as="geometry">
            <mxPoint x="910" y="347.99999999999955" as="sourcePoint" />
          </mxGeometry>
        </mxCell>
        <mxCell id="Mz-QrK3eCU41XmFkqmDs-32" value="Monolito / APIs" style="whiteSpace=wrap;html=1;aspect=fixed;" vertex="1" parent="1">
          <mxGeometry x="870" y="260" width="80" height="80" as="geometry" />
        </mxCell>
        <mxCell id="Mz-QrK3eCU41XmFkqmDs-33" value="BD&lt;br&gt;Monolito" style="shape=cylinder3;whiteSpace=wrap;html=1;boundedLbl=1;backgroundOutline=1;size=15;" vertex="1" parent="1">
          <mxGeometry x="880" y="432" width="60" height="80" as="geometry" />
        </mxCell>
        <mxCell id="Mz-QrK3eCU41XmFkqmDs-34" value="" style="shape=image;html=1;verticalAlign=top;verticalLabelPosition=bottom;labelBackgroundColor=#ffffff;imageAspect=0;aspect=fixed;image=https://cdn0.iconfinder.com/data/icons/social-media-2104/24/social_media_social_media_logo_docker-128.png" vertex="1" parent="1">
          <mxGeometry x="548" y="30" width="40" height="40" as="geometry" />
        </mxCell>
        <mxCell id="Mz-QrK3eCU41XmFkqmDs-35" value="" style="whiteSpace=wrap;html=1;aspect=fixed;" vertex="1" parent="1">
          <mxGeometry x="358" y="52" width="96" height="96" as="geometry" />
        </mxCell>
        <mxCell id="Mz-QrK3eCU41XmFkqmDs-36" value="Cache&lt;br&gt;MenCache&lt;br&gt;Redis" style="shape=cylinder3;whiteSpace=wrap;html=1;boundedLbl=1;backgroundOutline=1;size=15;" vertex="1" parent="1">
          <mxGeometry x="376" y="60" width="60" height="80" as="geometry" />
        </mxCell>
        <mxCell id="Mz-QrK3eCU41XmFkqmDs-37" value="container" style="text;html=1;strokeColor=none;fillColor=none;align=center;verticalAlign=middle;whiteSpace=wrap;rounded=0;" vertex="1" parent="1">
          <mxGeometry x="376" y="30" width="60" height="30" as="geometry" />
        </mxCell>
        <mxCell id="Mz-QrK3eCU41XmFkqmDs-38" value="VM XYZ&lt;br&gt;OU &lt;br&gt;Cluster Kubernets" style="text;html=1;strokeColor=none;fillColor=none;align=center;verticalAlign=middle;whiteSpace=wrap;rounded=0;" vertex="1" parent="1">
          <mxGeometry x="208" y="20" width="120" height="70" as="geometry" />
        </mxCell>
        <mxCell id="Mz-QrK3eCU41XmFkqmDs-39" value="Actor" style="shape=umlActor;verticalLabelPosition=bottom;verticalAlign=top;html=1;outlineConnect=0;" vertex="1" parent="1">
          <mxGeometry x="-670" y="168" width="30" height="60" as="geometry" />
        </mxCell>
        <mxCell id="Mz-QrK3eCU41XmFkqmDs-40" style="edgeStyle=none;rounded=0;orthogonalLoop=1;jettySize=auto;html=1;entryX=0;entryY=0.5;entryDx=0;entryDy=0;" edge="1" parent="1" source="Mz-QrK3eCU41XmFkqmDs-42" target="Mz-QrK3eCU41XmFkqmDs-44">
          <mxGeometry relative="1" as="geometry" />
        </mxCell>
        <mxCell id="Mz-QrK3eCU41XmFkqmDs-41" style="edgeStyle=none;rounded=0;orthogonalLoop=1;jettySize=auto;html=1;exitX=1;exitY=0.75;exitDx=0;exitDy=0;entryX=0;entryY=0.5;entryDx=0;entryDy=0;" edge="1" parent="1" source="Mz-QrK3eCU41XmFkqmDs-42" target="Mz-QrK3eCU41XmFkqmDs-55">
          <mxGeometry relative="1" as="geometry" />
        </mxCell>
        <mxCell id="Mz-QrK3eCU41XmFkqmDs-42" value="" style="whiteSpace=wrap;html=1;aspect=fixed;" vertex="1" parent="1">
          <mxGeometry x="-350" y="153" width="96" height="96" as="geometry" />
        </mxCell>
        <mxCell id="Mz-QrK3eCU41XmFkqmDs-43" value="LB&lt;br&gt;Camada 7 - Application" style="whiteSpace=wrap;html=1;aspect=fixed;" vertex="1" parent="1">
          <mxGeometry x="-342" y="161" width="80" height="80" as="geometry" />
        </mxCell>
        <mxCell id="Mz-QrK3eCU41XmFkqmDs-44" value="" style="whiteSpace=wrap;html=1;aspect=fixed;" vertex="1" parent="1">
          <mxGeometry x="-196" y="80" width="96" height="96" as="geometry" />
        </mxCell>
        <mxCell id="Mz-QrK3eCU41XmFkqmDs-45" style="edgeStyle=none;rounded=0;orthogonalLoop=1;jettySize=auto;html=1;entryX=0;entryY=0.25;entryDx=0;entryDy=0;" edge="1" parent="1" source="Mz-QrK3eCU41XmFkqmDs-46" target="Mz-QrK3eCU41XmFkqmDs-82">
          <mxGeometry relative="1" as="geometry" />
        </mxCell>
        <mxCell id="Mz-QrK3eCU41XmFkqmDs-46" value="API Gatway" style="whiteSpace=wrap;html=1;aspect=fixed;" vertex="1" parent="1">
          <mxGeometry x="-188" y="88" width="80" height="80" as="geometry" />
        </mxCell>
        <mxCell id="Mz-QrK3eCU41XmFkqmDs-47" value="" style="whiteSpace=wrap;html=1;aspect=fixed;" vertex="1" parent="1">
          <mxGeometry x="4" y="-76" width="96" height="96" as="geometry" />
        </mxCell>
        <mxCell id="Mz-QrK3eCU41XmFkqmDs-48" value="LB&lt;br&gt;Camada 4 - Transport" style="whiteSpace=wrap;html=1;aspect=fixed;" vertex="1" parent="1">
          <mxGeometry x="12" y="-68" width="80" height="80" as="geometry" />
        </mxCell>
        <mxCell id="Mz-QrK3eCU41XmFkqmDs-49" value="10GB - gerenciamento do cache feito pela memória&lt;br&gt;&lt;br&gt;LRU - Data mais antigo remove do cache&lt;br&gt;&lt;br&gt;LFU - couter, define a importancia da informação&lt;br&gt;&lt;br&gt;FIFO - primeira dado inserido / mais antigo, vai ser o primeiro dado a ser removido do cache&lt;br&gt;&lt;br&gt;Desvantagem: cenário onde a escrita é muito atualizada&lt;br&gt;Vantagem: cenário onde a leitura é muito intensa" style="text;html=1;strokeColor=none;fillColor=none;align=center;verticalAlign=middle;whiteSpace=wrap;rounded=0;" vertex="1" parent="1">
          <mxGeometry x="240" y="-298" width="320" height="240" as="geometry" />
        </mxCell>
        <mxCell id="Mz-QrK3eCU41XmFkqmDs-50" style="edgeStyle=none;rounded=0;orthogonalLoop=1;jettySize=auto;html=1;" edge="1" parent="1" source="Mz-QrK3eCU41XmFkqmDs-51" target="Mz-QrK3eCU41XmFkqmDs-42">
          <mxGeometry relative="1" as="geometry" />
        </mxCell>
        <mxCell id="Mz-QrK3eCU41XmFkqmDs-51" value="www.api234/1" style="text;html=1;strokeColor=none;fillColor=none;align=center;verticalAlign=middle;whiteSpace=wrap;rounded=0;" vertex="1" parent="1">
          <mxGeometry x="-650" y="166" width="120" height="70" as="geometry" />
        </mxCell>
        <mxCell id="Mz-QrK3eCU41XmFkqmDs-52" style="edgeStyle=none;rounded=0;orthogonalLoop=1;jettySize=auto;html=1;exitX=0.75;exitY=1;exitDx=0;exitDy=0;entryX=1;entryY=0;entryDx=0;entryDy=0;" edge="1" parent="1" source="Mz-QrK3eCU41XmFkqmDs-53" target="Mz-QrK3eCU41XmFkqmDs-16">
          <mxGeometry relative="1" as="geometry" />
        </mxCell>
        <mxCell id="Mz-QrK3eCU41XmFkqmDs-53" value="www.micro/1" style="text;html=1;strokeColor=none;fillColor=none;align=center;verticalAlign=middle;whiteSpace=wrap;rounded=0;" vertex="1" parent="1">
          <mxGeometry x="238" y="202" width="94" height="28" as="geometry" />
        </mxCell>
        <mxCell id="Mz-QrK3eCU41XmFkqmDs-54" style="edgeStyle=none;rounded=0;orthogonalLoop=1;jettySize=auto;html=1;exitX=1;exitY=0.5;exitDx=0;exitDy=0;entryX=0;entryY=0.75;entryDx=0;entryDy=0;" edge="1" parent="1" source="Mz-QrK3eCU41XmFkqmDs-55" target="Mz-QrK3eCU41XmFkqmDs-82">
          <mxGeometry relative="1" as="geometry" />
        </mxCell>
        <mxCell id="Mz-QrK3eCU41XmFkqmDs-55" value="" style="whiteSpace=wrap;html=1;aspect=fixed;" vertex="1" parent="1">
          <mxGeometry x="-196" y="216" width="96" height="96" as="geometry" />
        </mxCell>
        <mxCell id="Mz-QrK3eCU41XmFkqmDs-56" value="API Gatway" style="whiteSpace=wrap;html=1;aspect=fixed;" vertex="1" parent="1">
          <mxGeometry x="-188" y="224" width="80" height="80" as="geometry" />
        </mxCell>
        <mxCell id="Mz-QrK3eCU41XmFkqmDs-57" value="www.micro/2" style="text;html=1;strokeColor=none;fillColor=none;align=center;verticalAlign=middle;whiteSpace=wrap;rounded=0;" vertex="1" parent="1">
          <mxGeometry x="338" y="197" width="120" height="30" as="geometry" />
        </mxCell>
        <mxCell id="Mz-QrK3eCU41XmFkqmDs-58" style="edgeStyle=none;rounded=0;orthogonalLoop=1;jettySize=auto;html=1;exitX=0.75;exitY=1;exitDx=0;exitDy=0;entryX=1;entryY=0.75;entryDx=0;entryDy=0;" edge="1" parent="1" source="Mz-QrK3eCU41XmFkqmDs-59" target="Mz-QrK3eCU41XmFkqmDs-29">
          <mxGeometry relative="1" as="geometry" />
        </mxCell>
        <mxCell id="Mz-QrK3eCU41XmFkqmDs-59" value="www.micro/3" style="text;html=1;strokeColor=none;fillColor=none;align=center;verticalAlign=middle;whiteSpace=wrap;rounded=0;" vertex="1" parent="1">
          <mxGeometry x="458" y="195" width="120" height="30" as="geometry" />
        </mxCell>
        <mxCell id="Mz-QrK3eCU41XmFkqmDs-60" value="Teorema de Capri - Política de Disponibilidade:&lt;br&gt;&lt;br&gt;patterns de disponibilidade:&lt;br&gt;- Master / Slave (LB, BD, Cache, VM)&lt;br&gt;- Master / Master (BD, Cache)&lt;br&gt;- Replicas (container)&lt;br&gt;&lt;br&gt;dá para cumprir pelo menos 2: (c/t, ou d/t)&lt;br&gt;&lt;br&gt;consistência dados: patterns fraco, médio, forte&lt;br&gt;disponibilidade aplicação: patterns&lt;br&gt;tolerância a falha: microsserviço pattern" style="text;html=1;strokeColor=none;fillColor=none;align=center;verticalAlign=middle;whiteSpace=wrap;rounded=0;" vertex="1" parent="1">
          <mxGeometry x="-283" y="348" width="282" height="250" as="geometry" />
        </mxCell>
        <mxCell id="Mz-QrK3eCU41XmFkqmDs-61" style="edgeStyle=none;rounded=0;orthogonalLoop=1;jettySize=auto;html=1;exitX=0.25;exitY=1;exitDx=0;exitDy=0;entryX=0.5;entryY=0;entryDx=0;entryDy=0;entryPerimeter=0;" edge="1" parent="1" source="Mz-QrK3eCU41XmFkqmDs-63" target="Mz-QrK3eCU41XmFkqmDs-17">
          <mxGeometry relative="1" as="geometry" />
        </mxCell>
        <mxCell id="Mz-QrK3eCU41XmFkqmDs-62" style="edgeStyle=none;rounded=0;orthogonalLoop=1;jettySize=auto;html=1;exitX=0.75;exitY=1;exitDx=0;exitDy=0;" edge="1" parent="1" source="Mz-QrK3eCU41XmFkqmDs-63" target="Mz-QrK3eCU41XmFkqmDs-5">
          <mxGeometry relative="1" as="geometry" />
        </mxCell>
        <mxCell id="Mz-QrK3eCU41XmFkqmDs-63" value="" style="whiteSpace=wrap;html=1;aspect=fixed;" vertex="1" parent="1">
          <mxGeometry x="220" y="432" width="96" height="96" as="geometry" />
        </mxCell>
        <mxCell id="Mz-QrK3eCU41XmFkqmDs-64" value="LB&lt;br&gt;Camada 4 - Transport" style="whiteSpace=wrap;html=1;aspect=fixed;" vertex="1" parent="1">
          <mxGeometry x="228" y="440" width="80" height="80" as="geometry" />
        </mxCell>
        <mxCell id="Mz-QrK3eCU41XmFkqmDs-65" value="Política de expurgo" style="text;html=1;strokeColor=none;fillColor=none;align=center;verticalAlign=middle;whiteSpace=wrap;rounded=0;" vertex="1" parent="1">
          <mxGeometry x="428" y="550" width="60" height="30" as="geometry" />
        </mxCell>
        <mxCell id="Mz-QrK3eCU41XmFkqmDs-66" style="edgeStyle=none;rounded=0;orthogonalLoop=1;jettySize=auto;html=1;" edge="1" parent="1" source="Mz-QrK3eCU41XmFkqmDs-67" target="Mz-QrK3eCU41XmFkqmDs-37">
          <mxGeometry relative="1" as="geometry" />
        </mxCell>
        <mxCell id="Mz-QrK3eCU41XmFkqmDs-67" value="consistência fraca, pode nao ser a informação atualizada, mas retorna um valor" style="text;html=1;strokeColor=none;fillColor=none;align=center;verticalAlign=middle;whiteSpace=wrap;rounded=0;" vertex="1" parent="1">
          <mxGeometry x="292" y="-66" width="232" height="30" as="geometry" />
        </mxCell>
        <mxCell id="Mz-QrK3eCU41XmFkqmDs-68" value="consistência média: load balancer, BD replicação de forma assíncrona para atualizar todas as réplicas" style="text;html=1;strokeColor=none;fillColor=none;align=center;verticalAlign=middle;whiteSpace=wrap;rounded=0;" vertex="1" parent="1">
          <mxGeometry x="-320" y="-88" width="232" height="30" as="geometry" />
        </mxCell>
        <mxCell id="Mz-QrK3eCU41XmFkqmDs-69" value="consistência forte: &lt;b&gt;dado replicado de forma síncrona&lt;/b&gt; garante o dado mais atual não tem delay, trava as requisições para realizar a replicação, para nao retornar um dado desatualizado, vai dar lock na tabela, pode ser um gargalo, perde performance na leitura, pode acontecer perda de performance na escrita por querer atualizar novamente a mesma informação." style="text;html=1;strokeColor=none;fillColor=none;align=center;verticalAlign=middle;whiteSpace=wrap;rounded=0;" vertex="1" parent="1">
          <mxGeometry x="-712" y="-88" width="370" height="140" as="geometry" />
        </mxCell>
        <mxCell id="Mz-QrK3eCU41XmFkqmDs-70" style="edgeStyle=none;rounded=0;orthogonalLoop=1;jettySize=auto;html=1;entryX=1;entryY=0.5;entryDx=0;entryDy=0;" edge="1" parent="1" source="Mz-QrK3eCU41XmFkqmDs-71" target="Mz-QrK3eCU41XmFkqmDs-6">
          <mxGeometry relative="1" as="geometry" />
        </mxCell>
        <mxCell id="Mz-QrK3eCU41XmFkqmDs-71" value="Monitoramento" style="ellipse;shape=cloud;whiteSpace=wrap;html=1;" vertex="1" parent="1">
          <mxGeometry x="650" y="40" width="120" height="80" as="geometry" />
        </mxCell>
        <mxCell id="Mz-QrK3eCU41XmFkqmDs-72" value="Observabilidade&lt;br&gt;" style="ellipse;shape=cloud;whiteSpace=wrap;html=1;" vertex="1" parent="1">
          <mxGeometry x="740" y="33" width="120" height="80" as="geometry" />
        </mxCell>
        <mxCell id="Mz-QrK3eCU41XmFkqmDs-73" style="edgeStyle=none;rounded=0;orthogonalLoop=1;jettySize=auto;html=1;entryX=1;entryY=0.726;entryDx=0;entryDy=0;entryPerimeter=0;" edge="1" parent="1" source="Mz-QrK3eCU41XmFkqmDs-74" target="Mz-QrK3eCU41XmFkqmDs-6">
          <mxGeometry relative="1" as="geometry" />
        </mxCell>
        <mxCell id="Mz-QrK3eCU41XmFkqmDs-74" value="Key Vault" style="ellipse;shape=cloud;whiteSpace=wrap;html=1;" vertex="1" parent="1">
          <mxGeometry x="707" y="249" width="120" height="80" as="geometry" />
        </mxCell>
        <mxCell id="Mz-QrK3eCU41XmFkqmDs-75" value="Logs / Tracing&lt;br&gt;Datadog&lt;br&gt;New Relic" style="ellipse;shape=cloud;whiteSpace=wrap;html=1;" vertex="1" parent="1">
          <mxGeometry x="690" y="80" width="120" height="90" as="geometry" />
        </mxCell>
        <mxCell id="Mz-QrK3eCU41XmFkqmDs-76" value="Application Performance Monitoring" style="text;html=1;strokeColor=none;fillColor=none;align=center;verticalAlign=middle;whiteSpace=wrap;rounded=0;" vertex="1" parent="1">
          <mxGeometry x="720.25" y="-10" width="59.5" height="30" as="geometry" />
        </mxCell>
        <mxCell id="Mz-QrK3eCU41XmFkqmDs-77" value="" style="whiteSpace=wrap;html=1;aspect=fixed;" vertex="1" parent="1">
          <mxGeometry x="-490" y="153" width="96" height="96" as="geometry" />
        </mxCell>
        <mxCell id="Mz-QrK3eCU41XmFkqmDs-78" value="WAF&lt;br&gt;Web Aplication Firewall" style="whiteSpace=wrap;html=1;aspect=fixed;" vertex="1" parent="1">
          <mxGeometry x="-482" y="161" width="80" height="80" as="geometry" />
        </mxCell>
        <mxCell id="Mz-QrK3eCU41XmFkqmDs-79" style="edgeStyle=none;rounded=0;orthogonalLoop=1;jettySize=auto;html=1;" edge="1" parent="1" source="Mz-QrK3eCU41XmFkqmDs-80" target="Mz-QrK3eCU41XmFkqmDs-78">
          <mxGeometry relative="1" as="geometry" />
        </mxCell>
        <mxCell id="Mz-QrK3eCU41XmFkqmDs-80" value="DDos, SQL Injection" style="text;html=1;strokeColor=none;fillColor=none;align=center;verticalAlign=middle;whiteSpace=wrap;rounded=0;" vertex="1" parent="1">
          <mxGeometry x="-487" y="91" width="90" height="30" as="geometry" />
        </mxCell>
        <mxCell id="Mz-QrK3eCU41XmFkqmDs-81" style="edgeStyle=none;rounded=0;orthogonalLoop=1;jettySize=auto;html=1;entryX=0;entryY=0.289;entryDx=0;entryDy=0;entryPerimeter=0;" edge="1" parent="1" source="Mz-QrK3eCU41XmFkqmDs-82" target="Mz-QrK3eCU41XmFkqmDs-1">
          <mxGeometry relative="1" as="geometry" />
        </mxCell>
        <mxCell id="Mz-QrK3eCU41XmFkqmDs-82" value="Subnet precisa de um Gateway na borda" style="whiteSpace=wrap;html=1;aspect=fixed;" vertex="1" parent="1">
          <mxGeometry x="-1" y="153" width="101" height="101" as="geometry" />
        </mxCell>
        <mxCell id="Mz-QrK3eCU41XmFkqmDs-83" value="Subnet - rede privada / NAT configurado para os microsserviços acessarem a rede de internet para baizarem atualizações" style="text;html=1;strokeColor=none;fillColor=none;align=center;verticalAlign=middle;whiteSpace=wrap;rounded=0;" vertex="1" parent="1">
          <mxGeometry x="154" y="713" width="376" height="30" as="geometry" />
        </mxCell>
        <mxCell id="Mz-QrK3eCU41XmFkqmDs-84" value="https://media.graphcms.com/output=format:png/resize=,width:858,height:494/XJuH7NlvRu2CPRAgC5AV" style="text;whiteSpace=wrap;html=1;" vertex="1" parent="1">
          <mxGeometry x="840" y="790" width="550" height="30" as="geometry" />
        </mxCell>
      </root>
    </mxGraphModel>
  </diagram>
</mxfile>
